PathFileType	4	(X/Y/Z)	E:\Marcel_BSc\Ayumi_22_01_2025\22-01-2025\static_00.trc
DataRate	CameraRate	NumFrames	NumMarkers	Units	OrigDataRate	OrigDataStartFrame	OrigNumFrames
200.0	200.0	6	59	mm	200.0	8	352	
Frame#	Time	FHD			LBHD			RBHD			RBAR			LBAR			RASI			RSACR			LSACR			LASI			USACR			C7			CLAV			T10			RSHO			LSHO			LTHI1			LTHI3			LTHI2			LLFC			LMFC			LTIB1			LTIB2			LTIB3			LMMAL			LLMAL			LHEE			LMT1			LMT5			LMT3			RTHI1			RTHI2			RTHI3			RLFC			RMFC			RTIB1			RTIB3			RTIB2			RLMAL			RMMAL			RHEE			RMT5			RMT1			RMT3			LMEP			LLEP			LDUPA			LMUPA			LUUPA			LUL			LRAD			LRFIN			RUL			RRAD			RUFIN			RMEP			RLEP			RMUPA			RDUPA			RUUPA			
		X1	Y1	Z1	X2	Y2	Z2	X3	Y3	Z3	X4	Y4	Z4	X5	Y5	Z5	X6	Y6	Z6	X7	Y7	Z7	X8	Y8	Z8	X9	Y9	Z9	X10	Y10	Z10	X11	Y11	Z11	X12	Y12	Z12	X13	Y13	Z13	X14	Y14	Z14	X15	Y15	Z15	X16	Y16	Z16	X17	Y17	Z17	X18	Y18	Z18	X19	Y19	Z19	X20	Y20	Z20	X21	Y21	Z21	X22	Y22	Z22	X23	Y23	Z23	X24	Y24	Z24	X25	Y25	Z25	X26	Y26	Z26	X27	Y27	Z27	X28	Y28	Z28	X29	Y29	Z29	X30	Y30	Z30	X31	Y31	Z31	X32	Y32	Z32	X33	Y33	Z33	X34	Y34	Z34	X35	Y35	Z35	X36	Y36	Z36	X37	Y37	Z37	X38	Y38	Z38	X39	Y39	Z39	X40	Y40	Z40	X41	Y41	Z41	X42	Y42	Z42	X43	Y43	Z43	X44	Y44	Z44	X45	Y45	Z45	X46	Y46	Z46	X47	Y47	Z47	X48	Y48	Z48	X49	Y49	Z49	X50	Y50	Z50	X51	Y51	Z51	X52	Y52	Z52	X53	Y53	Z53	X54	Y54	Z54	X55	Y55	Z55	X56	Y56	Z56	X57	Y57	Z57	X58	Y58	Z58	X59	Y59	Z59	
8	0.03	110.36214	1611.8136	-967.77197	128.661	1594.6176	-907.42773	146.75903	1583.7888	-1038.4492				1041.0089	20.027456	-2031.6038	163.90181	927.51855	-1103.8762	324.05731	959.17255	-1016.942	321.09387	960.72266	-942.99695	150.55495	912.51746	-866.99213	316.25793	970.46118	-980.96082	299.1637	1401.3611	-964.25726	164.08296	1329.9132	-980.99066	321.48849	1117.8119	-974.8905	237.60492	1406.64	-1113.4359	217.84404	1398.0891	-830.41547	238.28146	606.53778	-808.50464	262.64005	546.08386	-819.72223	212.10048	545.93091	-818.88226	230.42914	449.46646	-841.56714	244.00714	441.08527	-940.23865	256.95511	233.85838	-818.8916	307.13297	232.45816	-815.83563	280.21661	173.54446	-826.00488	284.28436	71.77993	-914.78339	297.89972	69.583565	-843.43732	341.01361	33.935013	-881.76428	143.86273	39.178265	-873.69	169.41566	26.876633	-796.96771	144.8597	37.294201	-837.71912	258.4628	608.02997	-1157.7229	230.54965	549.42242	-1149.9868	282.19876	547.71826	-1148.2235	240.72197	455.25485	-1126.2734	254.6084	451.10831	-1017.8318	271.71497	276.83392	-1160.3553	294.53625	215.21393	-1156.0262	322.14307	274.69446	-1160.8945	307.59262	73.537643	-1135.1527	276.9035	75.738068	-1064.1498	351.60062	28.335825	-1095.3712	178.75528	29.378916	-1179.4424	151.09824	37.777309	-1115.5944	156.16264	36.026833	-1148.3215	265.73425	1276.4393	-1374.2617	303.92783	1337.2301	-1377.978	313.96002	1350.8156	-1278.0765	310.6441	1363.3246	-1217.6591	329.68777	1317.8119	-1208.0272	235.22752	1328.644	-326.44092	171.39177	1347.1174	-319.15265	182.99759	1343.7123	-245.04225	281.8299	1336.7462	-1611.9313	221.50302	1352.3265	-1612.401	220.27655	1349.1077	-1686.3138	205.67293	1275.5441	-581.20923	256.68253	1326.5735	-563.38904	255.33241	1359.3447	-643.87158	285.04172	1319.7227	-640.13611	271.20734	1366.2013	-703.70044
9	0.035	110.37247	1611.9086	-967.7276	128.66858	1594.6754	-907.43915	146.784	1583.83	-1038.4418				1041.0374	20.01462	-2031.6274	163.89839	927.50446	-1103.8346	324.03091	959.19476	-1016.9111	321.08752	960.69617	-942.97137	150.54314	912.49243	-866.9624	316.25342	970.42688	-980.95227	299.11798	1401.3842	-964.24603	164.04901	1329.9019	-980.99512	321.48654	1117.8041	-974.87299	237.60426	1406.6052	-1113.4445	217.60373	1398.3887	-830.2218	238.23909	606.53058	-808.49854	262.60629	546.07416	-819.70374	212.08521	545.9278	-818.84863	230.40236	449.45639	-841.54279	243.96527	441.11368	-940.20044	256.991	233.83594	-818.89148	307.13162	232.45128	-815.82599	280.22226	173.54053	-826.00085	284.2973	71.787811	-914.77399	297.89349	69.597527	-843.43152	341.02182	33.899654	-881.8277	143.86275	39.190605	-873.68713	169.42383	26.85766	-796.97418	144.84669	37.292675	-837.71228	258.43497	608.03333	-1157.7054	230.53049	549.42157	-1149.9937	282.19321	547.70959	-1148.1997	240.72876	455.22882	-1126.2648	254.60265	451.11151	-1017.8119	271.72275	276.83884	-1160.3282	294.53772	215.21172	-1156.0027	322.15396	274.68237	-1160.8698	307.61758	73.517052	-1135.1471	276.90091	75.719826	-1064.125	351.60098	28.353558	-1095.3718	178.75772	29.366663	-1179.4387	151.09972	37.761574	-1115.5861	156.17262	36.025974	-1148.317	265.72504	1276.3606	-1374.2494	303.8923	1337.1565	-1377.9928	313.91986	1350.7402	-1278.1093	310.61053	1363.2498	-1217.6903	329.66516	1317.7729	-1208.0312	235.07214	1328.6	-326.44598	171.16084	1347.155	-319.24225	182.87099	1343.6232	-245.05367	281.82199	1336.5488	-1611.9572	221.48523	1352.0961	-1612.4244	220.22319	1348.8595	-1686.3303	205.5657	1275.5443	-581.23175	256.58032	1326.5319	-563.40057	255.2408	1359.2977	-643.88629	284.95517	1319.7057	-640.12915	271.11566	1366.1754	-703.6936
10	0.04	110.40743	1611.9452	-967.76904	128.67921	1594.7551	-907.44073	146.82266	1583.8496	-1038.4633				1041.0126	20.019939	-2031.5942	163.88155	927.52283	-1103.8007	324.03122	959.17975	-1016.886	321.06677	960.69458	-942.93805	150.54398	912.47662	-866.93665	316.26804	970.39539	-980.93793	299.08194	1401.4012	-964.24554	164.03526	1329.8932	-981.00806	321.46536	1117.7861	-974.85175	237.59111	1406.5632	-1113.4578	217.571	1398.3885	-830.24249	238.20642	606.50751	-808.48419	262.60532	546.0575	-819.69263	212.09422	545.94818	-818.69025	230.39288	449.44519	-841.52997	243.95869	441.13147	-940.17853	256.97656	233.84395	-818.91675	307.09885	232.43806	-815.81927	280.20032	173.52277	-826.00372	284.32013	71.781143	-914.7619	297.88818	69.593292	-843.43701	341.01666	33.919563	-881.76624	143.85854	39.169071	-873.68341	169.4288	26.851385	-796.9848	144.86012	37.259029	-837.72736	258.47391	608.01312	-1157.679	230.53738	549.41309	-1149.9464	282.20535	547.70959	-1148.1639	240.70314	455.25131	-1126.2537	254.61572	451.10098	-1017.7836	271.73264	276.82602	-1160.3112	294.56274	215.18774	-1155.9728	322.16241	274.66818	-1160.8622	307.62015	73.506294	-1135.1234	276.89529	75.724945	-1064.1268	351.60449	28.335325	-1095.379	178.77664	29.337029	-1179.4492	151.10684	37.736958	-1115.5936	156.17023	36.014839	-1148.3198	265.71097	1276.286	-1374.2349	303.85046	1337.0813	-1377.9974	313.9017	1350.6558	-1278.1329	310.58798	1363.1273	-1217.7399	329.6246	1317.7522	-1208.0409	234.93451	1328.5868	-326.45135	170.99388	1347.0879	-319.24985	182.59023	1343.3447	-245.2514	281.82129	1336.3842	-1611.9707	221.43443	1351.9366	-1612.455	220.20462	1348.6196	-1686.3577	205.48866	1275.5422	-581.23438	256.49039	1326.4768	-563.42145	255.16779	1359.2545	-643.90704	284.85449	1319.6823	-640.14014	271.03891	1366.1302	-703.71655
11	0.045	110.43366	1612.0018	-967.75153	128.70973	1594.7885	-907.45831	146.84793	1583.8916	-1038.4734				1041.001	20.05682	-2031.5779	163.87425	927.50928	-1103.7841	324.01669	959.14801	-1016.8656	321.04596	960.68964	-942.91187	150.52373	912.46802	-866.909	316.25812	970.36792	-980.91931	299.03763	1401.4137	-964.24817	164.01398	1329.8846	-981.01813	321.48459	1117.7516	-974.82977	237.58577	1406.5465	-1113.4597	217.54295	1398.3708	-830.26398	238.2254	606.49188	-808.46259	262.60632	546.05408	-819.67841	212.05392	545.92474	-818.82513	230.38052	449.44034	-841.52936	243.92168	441.13257	-940.16663	256.98782	233.82593	-818.92035	307.07489	232.4254	-815.84125	280.21259	173.51393	-825.99213	284.31769	71.770988	-914.76556	297.89343	69.58049	-843.44305	341.00156	33.933243	-881.71655	143.86366	39.164124	-873.69861	169.42719	26.838047	-796.98547	144.85316	37.250961	-837.71454	258.45969	608.00781	-1157.6788	230.56648	549.3891	-1149.9518	282.19562	547.70074	-1148.1632	240.70314	455.24979	-1126.2302	255.09546	450.70395	-1017.9387	271.73477	276.84915	-1160.2966	294.56467	215.17325	-1155.9661	322.19318	274.64105	-1160.858	307.62714	73.491623	-1135.1327	276.90082	75.706451	-1064.1466	351.60736	28.35393	-1095.3783	178.79039	29.324081	-1179.4492	151.10326	37.747997	-1115.5798	156.18393	36.006771	-1148.3162	265.70645	1276.2279	-1374.2238	303.79239	1337.0532	-1378.0026	313.89151	1350.5829	-1278.1527	310.56622	1363.0638	-1217.7592	329.60422	1317.7328	-1208.0421	234.80504	1328.5819	-326.45963	170.90352	1347.0426	-319.21237	182.38614	1343.2789	-245.29062	281.80981	1336.2511	-1611.9873	221.70885	1351.5155	-1612.484	220.1882	1348.4542	-1686.3597	205.399	1275.5548	-581.22974	256.40271	1326.4756	-563.41534	255.09546	1359.2404	-643.91852	284.76895	1319.652	-640.14636	270.99258	1366.0664	-703.73785
12	0.05	110.46823	1612.0659	-967.7644	128.7184	1594.8456	-907.46393	146.89047	1583.9336	-1038.465				1040.9944	20.046001	-2031.5074	163.85677	927.50043	-1103.7595	323.98422	959.13361	-1016.8521	321.02808	960.70062	-942.88007	150.50494	912.46191	-866.87579	316.22256	970.38556	-980.89026	299.0202	1401.4111	-964.24481	163.99774	1329.8673	-981.01361	321.47	1117.7377	-974.81152	237.56696	1406.5175	-1113.4618	217.51126	1398.3683	-830.27142	238.21346	606.49005	-808.44269	262.5882	546.04425	-819.66724	212.03462	545.96405	-818.66809	230.36005	449.42752	-841.50989	243.90221	441.17764	-940.11566	256.96417	233.8145	-818.92969	307.06296	232.43312	-815.8418	280.21277	173.51227	-825.98163	284.30576	71.789139	-914.77466	297.89502	69.570763	-843.45447	341.01309	33.923477	-881.74988	143.86578	39.177734	-873.67206	169.42856	26.870243	-796.96289	144.84254	37.281475	-837.7085	258.4191	608.02338	-1157.6689	230.57214	549.37213	-1149.9752	282.21582	547.6684	-1148.1432	240.70238	455.24338	-1126.21	255.07895	450.71555	-1017.9256	271.74292	276.84695	-1160.2832	294.57956	215.18481	-1155.9408	322.18506	274.66229	-1160.8333	307.63773	73.483307	-1135.1238	276.89737	75.694206	-1064.1301	351.61624	28.316458	-1095.3918	178.80232	29.324284	-1179.4374	151.11227	37.7435	-1115.5734	156.17787	36.008419	-1148.3146	265.66064	1276.1844	-1374.2085	303.76596	1336.9855	-1378.0068	313.83902	1350.5851	-1278.1556	310.51562	1363.0372	-1217.7777	329.57126	1317.7061	-1208.0525	234.6812	1328.6166	-326.47635	170.74463	1347.0958	-319.2572	182.20689	1343.2678	-245.32672	281.80365	1336.1715	-1611.9872	221.69333	1351.3986	-1612.4767	220.18481	1348.2141	-1686.4117	205.29135	1275.5653	-581.23999	256.30875	1326.4757	-563.42053	255.03265	1359.2206	-643.93463	284.70093	1319.6284	-640.15503	270.94479	1366.1018	-703.72137
13	0.055	110.5256	1612.0685	-967.81482	128.72456	1594.8904	-907.50281	146.91411	1583.968	-1038.4973				1041.0195	20.031977	-2031.5034	163.83308	927.51605	-1103.7322	323.97888	959.11859	-1016.8195	321.00571	960.69006	-942.85333	150.47264	912.48456	-866.86432	316.21106	970.38312	-980.87006	298.99429	1401.411	-964.24158	163.97211	1329.8477	-981.05084	321.47748	1117.7246	-974.77649	237.55551	1406.4834	-1113.4867	217.46724	1398.3651	-830.28265	238.18103	606.48755	-808.43268	262.59662	546.02167	-819.66498	211.99448	545.92688	-818.79553	230.34537	449.41922	-841.49274	243.89987	441.17093	-940.09784	256.93692	233.80772	-819.00293	307.05066	232.4337	-815.84424	280.202	173.48235	-825.98615	284.33859	71.765144	-914.75079	297.89761	69.583313	-843.44543	341.00189	33.942707	-881.7121	143.86168	39.163868	-873.6839	169.44315	26.840815	-796.97864	144.84505	37.256687	-837.72546	258.42096	608.02051	-1157.6283	230.52502	549.44171	-1149.9001	282.20834	547.68292	-1148.1136	240.68102	455.26154	-1126.1852	255.06488	450.69418	-1017.903	271.73691	276.84796	-1160.2538	294.58435	215.1776	-1155.9153	322.22449	274.6362	-1160.8423	307.61829	73.492569	-1135.1307	276.90677	75.694946	-1064.1239	351.6174	28.320875	-1095.3947	178.80315	29.328739	-1179.4365	151.11082	37.75214	-1115.552	156.19049	36.009079	-1148.303	265.65283	1276.1497	-1374.2042	303.74319	1336.9261	-1378.0197	313.82455	1350.489	-1278.2039	310.49368	1362.9319	-1217.822	329.54053	1317.7089	-1208.0575	234.5601	1328.6208	-326.47894	170.98355	1346.798	-318.77997	182.1105	1343.2699	-245.32507	281.79785	1336.1448	-1611.9587	221.67813	1351.2842	-1612.5016	220.20145	1348.0726	-1686.4313	205.21085	1275.583	-581.24701	256.25189	1326.4341	-563.41211	254.9606	1359.2285	-643.94775	284.62924	1319.6145	-640.1463	270.92871	1366.0931	-703.7027
